<svg width="204" height="58" viewBox="0 0 204 58" fill="none" xmlns="http://www.w3.org/2000/svg">
<rect x="0.294189" width="203.706" height="57.2665" rx="5" fill="#F8F9FD"/>
<path d="M45.0567 27.0494C45.0124 22.2544 49.0835 19.9216 49.2696 19.813C46.964 16.5355 43.3904 16.0877 42.1346 16.052C39.1332 15.7441 36.2218 17.8031 34.6928 17.8031C33.1334 17.8031 30.7789 16.0818 28.2414 16.1324C24.976 16.1815 21.9212 18.0248 20.2458 20.8872C16.7881 26.7236 19.3668 35.3004 22.6795 40.018C24.3367 42.3284 26.273 44.9082 28.8075 44.8174C31.2871 44.7178 32.2133 43.2761 35.2055 43.2761C38.1703 43.2761 39.0401 44.8174 41.6249 44.7594C44.2861 44.7178 45.9615 42.4385 47.5606 40.1073C49.4756 37.4591 50.2447 34.8511 50.2752 34.7172C50.2126 34.6964 45.107 32.7965 45.0567 27.0494Z" fill="#1354DC"/>
<path d="M40.1738 12.9486C41.5074 11.3225 42.4199 9.11023 42.1666 6.86523C40.2364 6.94855 37.8224 8.16701 36.4324 9.7574C35.2025 11.1588 34.1039 13.4559 34.3877 15.6161C36.5559 15.7738 38.7822 14.5494 40.1738 12.9486Z" fill="#1354DC"/>
<path d="M73.9321 12.5087C73.9321 14.2598 73.3934 15.5779 72.3177 16.4631C71.3213 17.2799 69.9052 17.689 68.0711 17.689C67.1617 17.689 66.3835 17.6503 65.7319 17.573V8.00531C66.5819 7.87141 67.4974 7.80298 68.4862 7.80298C70.2333 7.80298 71.5501 8.17343 72.4382 8.91432C73.4331 9.75192 73.9321 10.9495 73.9321 12.5087ZM72.2459 12.5518C72.2459 11.4167 71.9377 10.5464 71.3213 9.93937C70.7048 9.33386 69.8045 9.03036 68.6189 9.03036C68.1154 9.03036 67.6866 9.06309 67.3311 9.13153V16.4051C67.5279 16.4348 67.888 16.4482 68.4114 16.4482C69.6352 16.4482 70.5797 16.1165 71.245 15.4529C71.9103 14.7894 72.2459 13.8224 72.2459 12.5518Z" fill="#1354DC"/>
<path d="M82.8709 14.0387C82.8709 15.1173 82.5551 16.001 81.9234 16.6943C81.2611 17.4069 80.3838 17.7625 79.2882 17.7625C78.2323 17.7625 77.3915 17.4218 76.7644 16.7374C76.1387 16.0546 75.8259 15.1931 75.8259 14.1547C75.8259 13.0687 76.1479 12.1775 76.7949 11.4857C77.4418 10.7939 78.3116 10.4473 79.4072 10.4473C80.4631 10.4473 81.3115 10.788 81.9539 11.4708C82.5642 12.1344 82.8709 12.9913 82.8709 14.0387ZM81.2123 14.0892C81.2123 13.4421 81.0689 12.8872 80.7835 12.4245C80.4478 11.8651 79.9702 11.5854 79.3492 11.5854C78.7068 11.5854 78.2185 11.8651 77.8828 12.4245C77.596 12.8872 77.4541 13.451 77.4541 14.1175C77.4541 14.7647 77.5975 15.3196 77.8828 15.7823C78.2292 16.3417 78.7114 16.6214 79.3339 16.6214C79.9443 16.6214 80.4234 16.3372 80.7683 15.7674C81.0643 15.2958 81.2123 14.7364 81.2123 14.0892Z" fill="#1354DC"/>
<path d="M94.8578 10.5903L92.6071 17.6035H91.1423L90.21 14.5581C89.9735 13.7979 89.7812 13.0421 89.6317 12.2923H89.6027C89.4638 13.063 89.2716 13.8172 89.0244 14.5581L88.0341 17.6035H86.5524L84.436 10.5903H86.0794L86.8927 13.9244C87.0895 14.7129 87.2513 15.4642 87.381 16.1753H87.41C87.529 15.5891 87.7258 14.8423 88.0035 13.9392L89.0244 10.5918H90.3275L91.3056 13.8678C91.5421 14.6667 91.7343 15.4359 91.8823 16.1768H91.9266C92.0349 15.4552 92.1982 14.6861 92.4149 13.8678L93.2877 10.5918H94.8578V10.5903Z" fill="#1354DC"/>
<path d="M103.151 17.6031H101.552V13.5862C101.552 12.3484 101.069 11.7295 100.102 11.7295C99.6274 11.7295 99.2444 11.8991 98.9468 12.2398C98.6523 12.5805 98.5028 12.9822 98.5028 13.4419V17.6016H96.9037V12.5939C96.9037 11.978 96.8839 11.31 96.8457 10.5869H98.251L98.3258 11.6834H98.3701C98.5562 11.3427 98.8339 11.0615 99.1986 10.8369C99.632 10.575 100.117 10.4426 100.648 10.4426C101.32 10.4426 101.878 10.6539 102.322 11.0779C102.874 11.5971 103.151 12.3722 103.151 13.4017V17.6031Z" fill="#1354DC"/>
<path d="M107.558 17.6028H105.961V7.37158H107.558V17.6028Z" fill="#1354DC"/>
<path d="M116.975 14.0387C116.975 15.1173 116.66 16.001 116.028 16.6943C115.366 17.4069 114.487 17.7625 113.393 17.7625C112.335 17.7625 111.494 17.4218 110.869 16.7374C110.243 16.0546 109.93 15.1931 109.93 14.1547C109.93 13.0687 110.252 12.1775 110.899 11.4857C111.546 10.7939 112.416 10.4473 113.51 10.4473C114.568 10.4473 115.414 10.788 116.058 11.4708C116.669 12.1344 116.975 12.9913 116.975 14.0387ZM115.315 14.0892C115.315 13.4421 115.172 12.8872 114.886 12.4245C114.552 11.8651 114.073 11.5854 113.454 11.5854C112.81 11.5854 112.321 11.8651 111.987 12.4245C111.7 12.8872 111.559 13.451 111.559 14.1175C111.559 14.7647 111.702 15.3196 111.987 15.7823C112.334 16.3417 112.816 16.6214 113.438 16.6214C114.049 16.6214 114.526 16.3372 114.871 15.7674C115.169 15.2958 115.315 14.7364 115.315 14.0892Z" fill="#1354DC"/>
<path d="M124.714 17.6033H123.278L123.159 16.7954H123.115C122.623 17.4396 121.923 17.7625 121.013 17.7625C120.334 17.7625 119.785 17.5497 119.372 17.1272C118.996 16.7434 118.809 16.2658 118.809 15.699C118.809 14.842 119.175 14.1889 119.912 13.7367C120.647 13.2844 121.682 13.0627 123.014 13.0731V12.9422C123.014 12.0183 122.516 11.5571 121.52 11.5571C120.811 11.5571 120.185 11.7312 119.645 12.0763L119.32 11.0528C119.988 10.6496 120.814 10.4473 121.787 10.4473C123.667 10.4473 124.61 11.4143 124.61 13.3484V15.9311C124.61 16.6318 124.645 17.1897 124.714 17.6033ZM123.054 15.1931V14.1116C121.29 14.0818 120.408 14.5534 120.408 15.5249C120.408 15.8909 120.508 16.1646 120.714 16.3476C120.92 16.5306 121.183 16.6214 121.496 16.6214C121.847 16.6214 122.175 16.5128 122.474 16.2971C122.774 16.0798 122.959 15.8046 123.028 15.4669C123.044 15.391 123.054 15.2988 123.054 15.1931Z" fill="#1354DC"/>
<path d="M133.802 17.6028H132.383L132.308 16.4765H132.264C131.811 17.3335 131.039 17.7619 129.954 17.7619C129.087 17.7619 128.366 17.4302 127.793 16.7667C127.221 16.1031 126.936 15.2417 126.936 14.1839C126.936 13.0488 127.246 12.1294 127.868 11.4272C128.471 10.7726 129.209 10.4452 130.088 10.4452C131.054 10.4452 131.73 10.7621 132.115 11.3974H132.145V7.37158H133.746V15.7133C133.746 16.3962 133.764 17.0255 133.802 17.6028ZM132.145 14.6451V13.4758C132.145 13.2734 132.13 13.1098 132.101 12.9848C132.011 12.6099 131.817 12.2945 131.523 12.0401C131.225 11.7857 130.866 11.6578 130.453 11.6578C129.856 11.6578 129.389 11.8884 129.046 12.351C128.706 12.8137 128.533 13.4044 128.533 14.1259C128.533 14.8192 128.697 15.3816 129.025 15.8145C129.371 16.2757 129.838 16.5063 130.422 16.5063C130.947 16.5063 131.367 16.3144 131.686 15.9291C131.994 15.5735 132.145 15.145 132.145 14.6451Z" fill="#1354DC"/>
<path d="M147.477 14.0387C147.477 15.1173 147.161 16.001 146.529 16.6943C145.867 17.4069 144.991 17.7625 143.894 17.7625C142.84 17.7625 141.999 17.4218 141.37 16.7374C140.745 16.0546 140.432 15.1931 140.432 14.1547C140.432 13.0687 140.754 12.1775 141.401 11.4857C142.048 10.7939 142.918 10.4473 144.015 10.4473C145.069 10.4473 145.919 10.788 146.56 11.4708C147.17 12.1344 147.477 12.9913 147.477 14.0387ZM145.82 14.0892C145.82 13.4421 145.676 12.8872 145.391 12.4245C145.054 11.8651 144.578 11.5854 143.955 11.5854C143.314 11.5854 142.826 11.8651 142.489 12.4245C142.202 12.8872 142.06 13.451 142.06 14.1175C142.06 14.7647 142.203 15.3196 142.489 15.7823C142.835 16.3417 143.317 16.6214 143.94 16.6214C144.55 16.6214 145.031 16.3372 145.376 15.7674C145.67 15.2958 145.82 14.7364 145.82 14.0892Z" fill="#1354DC"/>
<path d="M156.074 17.6031H154.476V13.5862C154.476 12.3484 153.994 11.7295 153.025 11.7295C152.55 11.7295 152.167 11.8991 151.871 12.2398C151.575 12.5805 151.427 12.9822 151.427 13.4419V17.6016H149.827V12.5939C149.827 11.978 149.808 11.31 149.77 10.5869H151.174L151.249 11.6834H151.293C151.481 11.3427 151.758 11.0615 152.122 10.8369C152.557 10.575 153.04 10.4426 153.573 10.4426C154.243 10.4426 154.801 10.6539 155.245 11.0779C155.799 11.5971 156.074 12.3722 156.074 13.4017V17.6031Z" fill="#1354DC"/>
<path d="M166.838 11.7568H165.077V15.1637C165.077 16.0295 165.39 16.4625 166.01 16.4625C166.296 16.4625 166.534 16.4387 166.722 16.3896L166.763 17.5723C166.447 17.6884 166.032 17.7464 165.521 17.7464C164.89 17.7464 164.398 17.5589 164.043 17.184C163.686 16.8091 163.509 16.1783 163.509 15.2931V11.7568H162.457V10.5889H163.509V9.30348L165.076 8.84229V10.5874H166.837V11.7568H166.838Z" fill="#1354DC"/>
<path d="M175.303 17.6028H173.702V13.6156C173.702 12.3585 173.22 11.7292 172.254 11.7292C171.512 11.7292 171.006 12.0937 170.728 12.8227C170.681 12.9759 170.653 13.1633 170.653 13.3835V17.6013H169.056V7.37158H170.653V11.5982H170.684C171.187 10.8291 171.909 10.4452 172.844 10.4452C173.507 10.4452 174.054 10.6565 174.489 11.0805C175.031 11.6087 175.303 12.3942 175.303 13.4326V17.6028Z" fill="#1354DC"/>
<path d="M184.034 13.7649C184.034 14.0446 184.012 14.2796 183.974 14.4716H179.178C179.2 15.1648 179.429 15.693 179.873 16.059C180.278 16.3863 180.802 16.5499 181.443 16.5499C182.152 16.5499 182.799 16.4398 183.382 16.2182L183.632 17.3012C182.95 17.5899 182.148 17.7342 181.218 17.7342C180.105 17.7342 179.227 17.4143 178.592 16.7746C177.955 16.1349 177.639 15.2764 177.639 14.1993C177.639 13.1415 177.933 12.2608 178.527 11.5586C179.146 10.8087 179.984 10.4338 181.041 10.4338C182.076 10.4338 182.862 10.8087 183.393 11.5586C183.822 12.1537 184.034 12.8901 184.034 13.7649ZM182.508 13.3617C182.52 12.899 182.415 12.5003 182.198 12.1641C181.92 11.7311 181.498 11.5139 180.925 11.5139C180.404 11.5139 179.978 11.7252 179.653 12.1492C179.387 12.4869 179.23 12.8901 179.178 13.3617H182.508Z" fill="#1354DC"/>
<path d="M80.9426 44.4863H77.4774L75.5792 38.6708H68.9812L67.173 44.4863H63.7993L70.3362 24.6875H74.3737L80.9426 44.4863ZM75.0069 36.2309L73.2903 31.061C73.1087 30.5328 72.7685 29.2891 72.2665 27.3312H72.2054C72.0055 28.1733 71.6836 29.417 71.2411 31.061L69.555 36.2309H75.0069Z" fill="#1354DC"/>
<path d="M97.7528 37.1712C97.7528 39.5992 97.0799 41.5184 95.7341 42.9273C94.5286 44.1815 93.0317 44.8078 91.2449 44.8078C89.3162 44.8078 87.9307 44.1324 87.0869 42.7815H87.0258V50.302H83.7726V34.9084C83.7726 33.382 83.7314 31.8154 83.6521 30.2086H86.5131L86.6947 32.4715H86.7558C87.8407 30.7665 89.4871 29.9155 91.6966 29.9155C93.4239 29.9155 94.8658 30.5805 96.0194 31.9121C97.176 33.2451 97.7528 34.9976 97.7528 37.1712ZM94.4386 37.2873C94.4386 35.8977 94.1181 34.7522 93.4742 33.8506C92.7708 32.9103 91.8263 32.4402 90.6422 32.4402C89.8396 32.4402 89.1102 32.7021 88.4586 33.2183C87.8056 33.739 87.3783 34.4189 87.1784 35.261C87.0777 35.6537 87.0274 35.9751 87.0274 36.228V38.6084C87.0274 39.6468 87.3539 40.5231 88.007 41.2387C88.6601 41.9543 89.5084 42.3114 90.5522 42.3114C91.7774 42.3114 92.7311 41.8502 93.4132 40.9307C94.0968 40.0098 94.4386 38.7958 94.4386 37.2873Z" fill="#1354DC"/>
<path d="M114.596 37.1712C114.596 39.5992 113.923 41.5184 112.575 42.9273C111.372 44.1815 109.875 44.8078 108.088 44.8078C106.159 44.8078 104.774 44.1324 103.931 42.7815H103.87V50.302H100.617V34.9084C100.617 33.382 100.576 31.8154 100.497 30.2086H103.358L103.539 32.4715H103.6C104.684 30.7665 106.33 29.9155 108.541 29.9155C110.267 29.9155 111.709 30.5805 112.865 31.9121C114.017 33.2451 114.596 34.9976 114.596 37.1712ZM111.282 37.2873C111.282 35.8977 110.96 34.7522 110.316 33.8506C109.612 32.9103 108.671 32.4402 107.485 32.4402C106.681 32.4402 105.953 32.7021 105.3 33.2183C104.647 33.739 104.221 34.4189 104.021 35.261C103.922 35.6537 103.87 35.9751 103.87 36.228V38.6084C103.87 39.6468 104.197 40.5231 104.847 41.2387C105.5 41.9528 106.348 42.3114 107.395 42.3114C108.62 42.3114 109.574 41.8502 110.256 40.9307C110.94 40.0098 111.282 38.7958 111.282 37.2873Z" fill="#1354DC"/>
<path d="M133.426 38.9337C133.426 40.6178 132.826 41.988 131.622 43.0458C130.299 44.2017 128.457 44.779 126.091 44.779C123.906 44.779 122.154 44.3684 120.828 43.5457L121.582 40.9019C123.01 41.744 124.577 42.1665 126.284 42.1665C127.51 42.1665 128.463 41.8958 129.149 41.3572C129.831 40.8186 130.171 40.0956 130.171 39.194C130.171 38.3906 129.89 37.7137 129.327 37.1647C128.767 36.6158 127.832 36.1055 126.526 35.6339C122.97 34.341 121.194 32.4471 121.194 29.9567C121.194 28.3291 121.817 26.9946 123.063 25.9561C124.305 24.9162 125.962 24.397 128.035 24.397C129.882 24.397 131.418 24.7109 132.643 25.3372L131.83 27.9229C130.685 27.3159 129.391 27.0124 127.943 27.0124C126.799 27.0124 125.905 27.2877 125.264 27.8351C124.722 28.3246 124.45 28.9212 124.45 29.6279C124.45 30.4104 124.76 31.0576 125.383 31.5664C125.924 32.0365 126.909 32.5453 128.337 33.0943C130.084 33.7801 131.367 34.582 132.193 35.5015C133.015 36.4179 133.426 37.5649 133.426 38.9337Z" fill="#1354DC"/>
<path d="M144.18 32.5899H140.594V39.5213C140.594 41.2843 141.226 42.165 142.492 42.165C143.074 42.165 143.556 42.1159 143.937 42.0177L144.027 44.4264C143.387 44.6599 142.543 44.7775 141.497 44.7775C140.213 44.7775 139.209 44.3951 138.484 43.6319C137.762 42.8672 137.399 41.5848 137.399 39.7831V32.5869H135.263V30.2066H137.399V27.5926L140.594 26.6523V30.2066H144.18V32.5899Z" fill="#1354DC"/>
<path d="M160.36 37.2302C160.36 39.4246 159.716 41.2263 158.431 42.6352C157.084 44.0857 155.296 44.8087 153.066 44.8087C150.918 44.8087 149.207 44.114 147.932 42.7244C146.656 41.3349 146.018 39.5808 146.018 37.4668C146.018 35.2545 146.674 33.4424 147.991 32.0335C149.305 30.6232 151.078 29.918 153.307 29.918C155.456 29.918 157.185 30.6127 158.489 32.0038C159.738 33.3532 160.36 35.0953 160.36 37.2302ZM156.985 37.3329C156.985 36.0162 156.696 34.887 156.112 33.9453C155.43 32.8057 154.455 32.2374 153.191 32.2374C151.884 32.2374 150.89 32.8072 150.208 33.9453C149.624 34.8885 149.336 36.0355 149.336 37.3924C149.336 38.709 149.624 39.8382 150.208 40.7785C150.912 41.9181 151.894 42.4864 153.163 42.4864C154.405 42.4864 155.38 41.9062 156.083 40.7487C156.683 39.7891 156.985 38.648 156.985 37.3329Z" fill="#1354DC"/>
<path d="M170.934 32.9981C170.612 32.9401 170.268 32.9103 169.908 32.9103C168.764 32.9103 167.879 33.3314 167.256 34.1749C166.714 34.9188 166.443 35.859 166.443 36.9942V44.4849H163.191L163.222 34.7046C163.222 33.0591 163.18 31.561 163.1 30.2101H165.933L166.052 32.9416H166.142C166.486 32.0028 167.027 31.2471 167.769 30.6802C168.494 30.1699 169.276 29.9155 170.12 29.9155C170.421 29.9155 170.692 29.9364 170.934 29.9735V32.9981Z" fill="#1354DC"/>
<path d="M185.482 36.6715C185.482 37.2398 185.444 37.7189 185.363 38.1102H175.604C175.642 39.5205 176.113 40.5991 177.02 41.343C177.842 42.008 178.906 42.3413 180.212 42.3413C181.657 42.3413 182.975 42.1166 184.161 41.6658L184.67 43.8677C183.285 44.4568 181.649 44.7499 179.762 44.7499C177.491 44.7499 175.709 44.0983 174.412 42.7965C173.118 41.4948 172.469 39.7467 172.469 37.5537C172.469 35.401 173.072 33.6083 174.279 32.1785C175.543 30.6521 177.25 29.8889 179.399 29.8889C181.509 29.8889 183.106 30.6521 184.191 32.1785C185.05 33.3911 185.482 34.8907 185.482 36.6715ZM182.38 35.8488C182.401 34.9085 182.189 34.0962 181.748 33.4104C181.185 32.5282 180.32 32.0878 179.156 32.0878C178.092 32.0878 177.227 32.5177 176.566 33.3806C176.025 34.0665 175.703 34.8892 175.604 35.8473H182.38V35.8488Z" fill="#1354DC"/>
</svg>
