<svg width="204" height="58" viewBox="0 0 204 58" fill="none" xmlns="http://www.w3.org/2000/svg">
<rect x="0.294189" width="203.706" height="57.2665" rx="5" fill="#1354DC"/>
<path d="M45.0567 27.0493C45.0124 22.2543 49.0835 19.9215 49.2696 19.8129C46.964 16.5354 43.3904 16.0876 42.1346 16.0519C39.1332 15.7439 36.2218 17.803 34.6928 17.803C33.1334 17.803 30.7789 16.0817 28.2414 16.1322C24.976 16.1813 21.9212 18.0246 20.2458 20.887C16.7881 26.7234 19.3668 35.3003 22.6795 40.0179C24.3367 42.3283 26.273 44.9081 28.8075 44.8173C31.2871 44.7176 32.2133 43.276 35.2055 43.276C38.1703 43.276 39.0401 44.8173 41.6249 44.7593C44.2861 44.7176 45.9615 42.4384 47.5606 40.1071C49.4756 37.459 50.2447 34.851 50.2752 34.7171C50.2126 34.6962 45.107 32.7964 45.0567 27.0493Z" fill="#F8F9FD"/>
<path d="M40.1738 12.9485C41.5074 11.3224 42.4199 9.11011 42.1666 6.86511C40.2364 6.94843 37.8224 8.16688 36.4324 9.75728C35.2025 11.1587 34.1039 13.4558 34.3877 15.616C36.5559 15.7737 38.7822 14.5493 40.1738 12.9485Z" fill="#F8F9FD"/>
<path d="M73.9321 12.5086C73.9321 14.2596 73.3934 15.5778 72.3177 16.463C71.3213 17.2798 69.9052 17.6889 68.0711 17.6889C67.1617 17.6889 66.3835 17.6502 65.7319 17.5728V8.00519C66.5819 7.87129 67.4974 7.80286 68.4862 7.80286C70.2333 7.80286 71.5501 8.1733 72.4382 8.9142C73.4331 9.75179 73.9321 10.9494 73.9321 12.5086ZM72.2459 12.5517C72.2459 11.4166 71.9377 10.5462 71.3213 9.93925C70.7048 9.33374 69.8045 9.03024 68.6189 9.03024C68.1154 9.03024 67.6866 9.06297 67.3311 9.13141V16.405C67.5279 16.4347 67.888 16.4481 68.4114 16.4481C69.6352 16.4481 70.5797 16.1163 71.245 15.4528C71.9103 14.7893 72.2459 13.8222 72.2459 12.5517Z" fill="#F8F9FD"/>
<path d="M82.8709 14.0384C82.8709 15.117 82.5551 16.0007 81.9234 16.694C81.2611 17.4067 80.3838 17.7622 79.2882 17.7622C78.2323 17.7622 77.3915 17.4215 76.7644 16.7372C76.1387 16.0543 75.8259 15.1929 75.8259 14.1545C75.8259 13.0684 76.1479 12.1773 76.7949 11.4855C77.4418 10.7937 78.3116 10.447 79.4072 10.447C80.4631 10.447 81.3115 10.7877 81.9539 11.4706C82.5642 12.1341 82.8709 12.9911 82.8709 14.0384ZM81.2123 14.089C81.2123 13.4418 81.0689 12.8869 80.7835 12.4242C80.4478 11.8648 79.9702 11.5851 79.3492 11.5851C78.7068 11.5851 78.2185 11.8648 77.8828 12.4242C77.596 12.8869 77.4541 13.4508 77.4541 14.1173C77.4541 14.7644 77.5975 15.3194 77.8828 15.782C78.2292 16.3414 78.7114 16.6211 79.3339 16.6211C79.9443 16.6211 80.4234 16.337 80.7683 15.7672C81.0643 15.2956 81.2123 14.7362 81.2123 14.089Z" fill="#F8F9FD"/>
<path d="M94.8578 10.5901L92.6071 17.6033H91.1423L90.21 14.5579C89.9735 13.7977 89.7812 13.0419 89.6317 12.2921H89.6027C89.4638 13.0627 89.2716 13.817 89.0244 14.5579L88.0341 17.6033H86.5524L84.436 10.5901H86.0794L86.8927 13.9241C87.0895 14.7126 87.2513 15.4639 87.381 16.1751H87.41C87.529 15.5889 87.7258 14.842 88.0035 13.939L89.0244 10.5916H90.3275L91.3056 13.8676C91.5421 14.6665 91.7343 15.4357 91.8823 16.1765H91.9266C92.0349 15.455 92.1982 14.6858 92.4149 13.8676L93.2877 10.5916H94.8578V10.5901Z" fill="#F8F9FD"/>
<path d="M103.151 17.6031H101.552V13.5862C101.552 12.3484 101.069 11.7295 100.102 11.7295C99.6274 11.7295 99.2444 11.8991 98.9468 12.2398C98.6523 12.5805 98.5028 12.9822 98.5028 13.4419V17.6016H96.9037V12.5939C96.9037 11.978 96.8839 11.31 96.8457 10.5869H98.251L98.3258 11.6834H98.3701C98.5562 11.3427 98.8339 11.0615 99.1986 10.8369C99.632 10.575 100.117 10.4426 100.648 10.4426C101.32 10.4426 101.878 10.6539 102.322 11.0779C102.874 11.5971 103.151 12.3722 103.151 13.4017V17.6031Z" fill="#F8F9FD"/>
<path d="M107.558 17.6026H105.961V7.37146H107.558V17.6026Z" fill="#F8F9FD"/>
<path d="M116.975 14.0384C116.975 15.117 116.66 16.0007 116.028 16.694C115.366 17.4067 114.487 17.7622 113.393 17.7622C112.335 17.7622 111.494 17.4215 110.869 16.7372C110.243 16.0543 109.93 15.1929 109.93 14.1545C109.93 13.0684 110.252 12.1773 110.899 11.4855C111.546 10.7937 112.416 10.447 113.51 10.447C114.568 10.447 115.414 10.7877 116.058 11.4706C116.669 12.1341 116.975 12.9911 116.975 14.0384ZM115.315 14.089C115.315 13.4418 115.172 12.8869 114.886 12.4242C114.552 11.8648 114.073 11.5851 113.454 11.5851C112.81 11.5851 112.321 11.8648 111.987 12.4242C111.7 12.8869 111.559 13.4508 111.559 14.1173C111.559 14.7644 111.702 15.3194 111.987 15.782C112.334 16.3414 112.816 16.6211 113.438 16.6211C114.049 16.6211 114.526 16.337 114.871 15.7672C115.169 15.2956 115.315 14.7362 115.315 14.089Z" fill="#F8F9FD"/>
<path d="M124.714 17.603H123.278L123.159 16.7952H123.115C122.623 17.4394 121.923 17.7622 121.013 17.7622C120.334 17.7622 119.785 17.5495 119.372 17.127C118.996 16.7431 118.809 16.2656 118.809 15.6987C118.809 14.8418 119.175 14.1887 119.912 13.7364C120.647 13.2841 121.682 13.0625 123.014 13.0729V12.942C123.014 12.0181 122.516 11.5569 121.52 11.5569C120.811 11.5569 120.185 11.7309 119.645 12.0761L119.32 11.0525C119.988 10.6494 120.814 10.447 121.787 10.447C123.667 10.447 124.61 11.4141 124.61 13.3481V15.9308C124.61 16.6315 124.645 17.1894 124.714 17.603ZM123.054 15.1929V14.1113C121.29 14.0816 120.408 14.5532 120.408 15.5247C120.408 15.8907 120.508 16.1644 120.714 16.3474C120.92 16.5304 121.183 16.6211 121.496 16.6211C121.847 16.6211 122.175 16.5125 122.474 16.2968C122.774 16.0796 122.959 15.8044 123.028 15.4666C123.044 15.3908 123.054 15.2985 123.054 15.1929Z" fill="#F8F9FD"/>
<path d="M133.802 17.6026H132.383L132.308 16.4764H132.264C131.811 17.3334 131.039 17.7618 129.954 17.7618C129.087 17.7618 128.366 17.4301 127.793 16.7665C127.221 16.103 126.936 15.2416 126.936 14.1838C126.936 13.0487 127.246 12.1292 127.868 11.427C128.471 10.7724 129.209 10.4451 130.088 10.4451C131.054 10.4451 131.73 10.762 132.115 11.3973H132.145V7.37146H133.746V15.7132C133.746 16.3961 133.764 17.0254 133.802 17.6026ZM132.145 14.645V13.4757C132.145 13.2733 132.13 13.1097 132.101 12.9847C132.011 12.6098 131.817 12.2944 131.523 12.04C131.225 11.7856 130.866 11.6576 130.453 11.6576C129.856 11.6576 129.389 11.8882 129.046 12.3509C128.706 12.8136 128.533 13.4042 128.533 14.1258C128.533 14.8191 128.697 15.3814 129.025 15.8144C129.371 16.2756 129.838 16.5062 130.422 16.5062C130.947 16.5062 131.367 16.3143 131.686 15.9289C131.994 15.5734 132.145 15.1449 132.145 14.645Z" fill="#F8F9FD"/>
<path d="M147.477 14.0384C147.477 15.117 147.161 16.0007 146.529 16.694C145.867 17.4067 144.991 17.7622 143.894 17.7622C142.84 17.7622 141.999 17.4215 141.37 16.7372C140.745 16.0543 140.432 15.1929 140.432 14.1545C140.432 13.0684 140.754 12.1773 141.401 11.4855C142.048 10.7937 142.918 10.447 144.015 10.447C145.069 10.447 145.919 10.7877 146.56 11.4706C147.17 12.1341 147.477 12.9911 147.477 14.0384ZM145.82 14.089C145.82 13.4418 145.676 12.8869 145.391 12.4242C145.054 11.8648 144.578 11.5851 143.955 11.5851C143.314 11.5851 142.826 11.8648 142.489 12.4242C142.202 12.8869 142.06 13.4508 142.06 14.1173C142.06 14.7644 142.203 15.3194 142.489 15.782C142.835 16.3414 143.317 16.6211 143.94 16.6211C144.55 16.6211 145.031 16.337 145.376 15.7672C145.67 15.2956 145.82 14.7362 145.82 14.089Z" fill="#F8F9FD"/>
<path d="M156.074 17.6031H154.476V13.5862C154.476 12.3484 153.994 11.7295 153.025 11.7295C152.55 11.7295 152.167 11.8991 151.871 12.2398C151.575 12.5805 151.427 12.9822 151.427 13.4419V17.6016H149.827V12.5939C149.827 11.978 149.808 11.31 149.77 10.5869H151.174L151.249 11.6834H151.293C151.481 11.3427 151.758 11.0615 152.122 10.8369C152.557 10.575 153.04 10.4426 153.573 10.4426C154.243 10.4426 154.801 10.6539 155.245 11.0779C155.799 11.5971 156.074 12.3722 156.074 13.4017V17.6031Z" fill="#F8F9FD"/>
<path d="M166.838 11.7566H165.077V15.1636C165.077 16.0294 165.39 16.4624 166.01 16.4624C166.296 16.4624 166.534 16.4386 166.722 16.3895L166.763 17.5722C166.447 17.6883 166.032 17.7463 165.521 17.7463C164.89 17.7463 164.398 17.5588 164.043 17.1839C163.686 16.809 163.509 16.1782 163.509 15.293V11.7566H162.457V10.5888H163.509V9.30336L165.076 8.84216V10.5873H166.837V11.7566H166.838Z" fill="#F8F9FD"/>
<path d="M175.303 17.6026H173.702V13.6155C173.702 12.3584 173.22 11.729 172.254 11.729C171.512 11.729 171.006 12.0935 170.728 12.8225C170.681 12.9758 170.653 13.1632 170.653 13.3834V17.6011H169.056V7.37146H170.653V11.5981H170.684C171.187 10.829 171.909 10.4451 172.844 10.4451C173.507 10.4451 174.054 10.6564 174.489 11.0804C175.031 11.6085 175.303 12.3941 175.303 13.4325V17.6026Z" fill="#F8F9FD"/>
<path d="M184.034 13.7648C184.034 14.0445 184.012 14.2795 183.974 14.4714H179.178C179.2 15.1647 179.429 15.6929 179.873 16.0589C180.278 16.3862 180.802 16.5498 181.443 16.5498C182.152 16.5498 182.799 16.4397 183.382 16.218L183.632 17.3011C182.95 17.5897 182.148 17.734 181.218 17.734C180.105 17.734 179.227 17.4142 178.592 16.7745C177.955 16.1347 177.639 15.2763 177.639 14.1992C177.639 13.1414 177.933 12.2607 178.527 11.5584C179.146 10.8086 179.984 10.4337 181.041 10.4337C182.076 10.4337 182.862 10.8086 183.393 11.5584C183.822 12.1535 184.034 12.89 184.034 13.7648ZM182.508 13.3616C182.52 12.8989 182.415 12.5002 182.198 12.164C181.92 11.731 181.498 11.5138 180.925 11.5138C180.404 11.5138 179.978 11.7251 179.653 12.1491C179.387 12.4868 179.23 12.89 179.178 13.3616H182.508Z" fill="#F8F9FD"/>
<path d="M80.9426 44.4863H77.4774L75.5792 38.6708H68.9812L67.173 44.4863H63.7993L70.3362 24.6875H74.3737L80.9426 44.4863ZM75.0069 36.2309L73.2903 31.061C73.1087 30.5328 72.7685 29.2891 72.2665 27.3312H72.2054C72.0055 28.1733 71.6836 29.417 71.2411 31.061L69.555 36.2309H75.0069Z" fill="#F8F9FD"/>
<path d="M97.7528 37.1713C97.7528 39.5993 97.0799 41.5185 95.7341 42.9274C94.5286 44.1816 93.0317 44.8079 91.2449 44.8079C89.3162 44.8079 87.9307 44.1325 87.0869 42.7816H87.0258V50.3021H83.7726V34.9085C83.7726 33.3821 83.7314 31.8155 83.6521 30.2087H86.5131L86.6947 32.4716H86.7558C87.8407 30.7666 89.4871 29.9156 91.6966 29.9156C93.4239 29.9156 94.8658 30.5807 96.0194 31.9122C97.176 33.2452 97.7528 34.9978 97.7528 37.1713ZM94.4386 37.2874C94.4386 35.8978 94.1181 34.7523 93.4742 33.8507C92.7708 32.9105 91.8263 32.4403 90.6422 32.4403C89.8396 32.4403 89.1102 32.7022 88.4586 33.2184C87.8056 33.7391 87.3783 34.419 87.1784 35.2611C87.0777 35.6539 87.0274 35.9752 87.0274 36.2281V38.6085C87.0274 39.6469 87.3539 40.5232 88.007 41.2388C88.6601 41.9544 89.5084 42.3115 90.5522 42.3115C91.7774 42.3115 92.7311 41.8503 93.4132 40.9309C94.0968 40.01 94.4386 38.796 94.4386 37.2874Z" fill="#F8F9FD"/>
<path d="M114.596 37.1713C114.596 39.5993 113.923 41.5185 112.575 42.9274C111.372 44.1816 109.875 44.8079 108.088 44.8079C106.159 44.8079 104.774 44.1325 103.931 42.7816H103.87V50.3021H100.617V34.9085C100.617 33.3821 100.576 31.8155 100.497 30.2087H103.358L103.539 32.4716H103.6C104.684 30.7666 106.33 29.9156 108.541 29.9156C110.267 29.9156 111.709 30.5807 112.865 31.9122C114.017 33.2452 114.596 34.9978 114.596 37.1713ZM111.282 37.2874C111.282 35.8978 110.96 34.7523 110.316 33.8507C109.612 32.9105 108.671 32.4403 107.485 32.4403C106.681 32.4403 105.953 32.7022 105.3 33.2184C104.647 33.7391 104.221 34.419 104.021 35.2611C103.922 35.6539 103.87 35.9752 103.87 36.2281V38.6085C103.87 39.6469 104.197 40.5232 104.847 41.2388C105.5 41.9529 106.348 42.3115 107.395 42.3115C108.62 42.3115 109.574 41.8503 110.256 40.9309C110.94 40.01 111.282 38.796 111.282 37.2874Z" fill="#F8F9FD"/>
<path d="M133.426 38.9337C133.426 40.6178 132.826 41.988 131.622 43.0458C130.299 44.2017 128.457 44.779 126.091 44.779C123.906 44.779 122.154 44.3684 120.828 43.5457L121.582 40.9019C123.01 41.744 124.577 42.1665 126.284 42.1665C127.51 42.1665 128.463 41.8958 129.149 41.3572C129.831 40.8186 130.171 40.0956 130.171 39.194C130.171 38.3906 129.89 37.7137 129.327 37.1647C128.767 36.6158 127.832 36.1055 126.526 35.6339C122.97 34.341 121.194 32.4471 121.194 29.9567C121.194 28.3291 121.817 26.9946 123.063 25.9561C124.305 24.9162 125.962 24.397 128.035 24.397C129.882 24.397 131.418 24.7109 132.643 25.3372L131.83 27.9229C130.685 27.3159 129.391 27.0124 127.943 27.0124C126.799 27.0124 125.905 27.2877 125.264 27.8351C124.722 28.3246 124.45 28.9212 124.45 29.6279C124.45 30.4104 124.76 31.0576 125.383 31.5664C125.924 32.0365 126.909 32.5453 128.337 33.0943C130.084 33.7801 131.367 34.582 132.193 35.5015C133.015 36.4179 133.426 37.5649 133.426 38.9337Z" fill="#F8F9FD"/>
<path d="M144.18 32.5898H140.594V39.5212C140.594 41.2841 141.226 42.1649 142.492 42.1649C143.074 42.1649 143.556 42.1158 143.937 42.0176L144.027 44.4262C143.387 44.6598 142.543 44.7773 141.497 44.7773C140.213 44.7773 139.209 44.395 138.484 43.6318C137.762 42.8671 137.399 41.5847 137.399 39.783V32.5868H135.263V30.2064H137.399V27.5925L140.594 26.6522V30.2064H144.18V32.5898Z" fill="#F8F9FD"/>
<path d="M160.36 37.2301C160.36 39.4245 159.716 41.2261 158.431 42.635C157.084 44.0856 155.296 44.8086 153.066 44.8086C150.918 44.8086 149.207 44.1138 147.932 42.7243C146.656 41.3348 146.018 39.5807 146.018 37.4666C146.018 35.2544 146.674 33.4423 147.991 32.0334C149.305 30.623 151.078 29.9178 153.307 29.9178C155.456 29.9178 157.185 30.6126 158.489 32.0037C159.738 33.353 160.36 35.0952 160.36 37.2301ZM156.985 37.3327C156.985 36.0161 156.696 34.8869 156.112 33.9452C155.43 32.8055 154.455 32.2372 153.191 32.2372C151.884 32.2372 150.89 32.807 150.208 33.9452C149.624 34.8884 149.336 36.0354 149.336 37.3922C149.336 38.7089 149.624 39.8381 150.208 40.7783C150.912 41.9179 151.894 42.4863 153.163 42.4863C154.405 42.4863 155.38 41.906 156.083 40.7486C156.683 39.789 156.985 38.6479 156.985 37.3327Z" fill="#F8F9FD"/>
<path d="M170.934 32.9982C170.612 32.9402 170.268 32.9105 169.908 32.9105C168.764 32.9105 167.879 33.3315 167.256 34.175C166.714 34.9189 166.443 35.8592 166.443 36.9943V44.4851H163.191L163.222 34.7047C163.222 33.0592 163.18 31.5611 163.1 30.2102H165.933L166.052 32.9417H166.142C166.486 32.0029 167.027 31.2472 167.769 30.6803C168.494 30.1701 169.276 29.9156 170.12 29.9156C170.421 29.9156 170.692 29.9365 170.934 29.9737V32.9982Z" fill="#F8F9FD"/>
<path d="M185.482 36.6714C185.482 37.2397 185.444 37.7188 185.363 38.11H175.604C175.642 39.5204 176.113 40.599 177.02 41.3429C177.842 42.0079 178.906 42.3412 180.212 42.3412C181.657 42.3412 182.975 42.1165 184.161 41.6657L184.67 43.8676C183.285 44.4567 181.649 44.7498 179.762 44.7498C177.491 44.7498 175.709 44.0982 174.412 42.7964C173.118 41.4946 172.469 39.7465 172.469 37.5536C172.469 35.4009 173.072 33.6081 174.279 32.1784C175.543 30.652 177.25 29.8888 179.399 29.8888C181.509 29.8888 183.106 30.652 184.191 32.1784C185.05 33.3909 185.482 34.8906 185.482 36.6714ZM182.38 35.8487C182.401 34.9084 182.189 34.0961 181.748 33.4103C181.185 32.528 180.32 32.0877 179.156 32.0877C178.092 32.0877 177.227 32.5176 176.566 33.3805C176.025 34.0664 175.703 34.8891 175.604 35.8472H182.38V35.8487Z" fill="#F8F9FD"/>
</svg>
