<svg width="49" height="49" viewBox="0 0 49 49" fill="none" xmlns="http://www.w3.org/2000/svg">
<path d="M38.7917 40.8333H10.2083V42.875C10.2083 44.0026 9.29424 44.9166 8.16667 44.9166H6.125C4.99743 44.9166 4.08333 44.0026 4.08333 42.875V27.5625L1.54649 26.9283C0.637606 26.7011 0 25.8844 0 24.9475V23.4791C0 22.9154 0.457043 22.4583 1.02083 22.4583H4.08333L9.14769 10.6415C9.79114 9.14007 11.2674 8.16663 12.9009 8.16663H36.0991C37.7327 8.16663 39.2088 9.14007 39.8523 10.6415L44.9167 22.4583H47.9792C48.5429 22.4583 49 22.9154 49 23.4791V24.9475C49 25.8844 48.3624 26.7011 47.4534 26.9283L44.9167 27.5625V42.875C44.9167 44.0026 44.0026 44.9166 42.875 44.9166H40.8333C39.7057 44.9166 38.7917 44.0026 38.7917 42.875V40.8333ZM40.8333 36.75V26.5416H8.16667V36.75H40.8333ZM11.1823 22.4583H37.8178C38.0775 22.4583 38.3347 22.4087 38.5761 22.3123C39.6228 21.8936 40.1322 20.7053 39.7133 19.6584L36.75 12.25H12.25L9.28664 19.6584C9.19018 19.8995 9.1406 20.1569 9.1406 20.4166C9.1406 21.5442 10.0547 22.4583 11.1823 22.4583ZM10.2083 28.5833C14.9383 28.5833 18.1273 30.1243 19.7753 33.2062C20.0412 33.7034 19.8535 34.3218 19.3564 34.5876C19.2084 34.6668 19.043 34.7083 18.8751 34.7083H12.25C11.1224 34.7083 10.2083 33.7942 10.2083 32.6666V28.5833ZM38.7917 28.5833V32.6666C38.7917 33.7942 37.8776 34.7083 36.75 34.7083H30.1248C29.957 34.7083 29.7916 34.6668 29.6436 34.5876C29.1464 34.3218 28.959 33.7034 29.2248 33.2062C30.8729 30.1243 34.0617 28.5833 38.7917 28.5833Z" fill="black"/>
</svg>
