<svg width="16" height="20" viewBox="0 0 16 20" fill="none" xmlns="http://www.w3.org/2000/svg">
<rect x="0.5" y="4.5" width="15" height="15" rx="3.5" fill="#020183"/>
<rect x="0.5" y="4.5" width="15" height="15" rx="3.5" stroke="#020183"/>
<path d="M12.144 8.47369C12.2037 8.41276 12.275 8.36436 12.3536 8.33131C12.4323 8.29827 12.5167 8.28125 12.602 8.28125C12.6874 8.28125 12.7718 8.29827 12.8505 8.33131C12.9291 8.36436 13.0004 8.41276 13.0601 8.47369C13.3104 8.72657 13.3139 9.13519 13.0689 9.39244L7.89498 15.5087C7.83624 15.5732 7.76496 15.625 7.68549 15.661C7.60602 15.6971 7.52004 15.7165 7.43281 15.7181C7.34558 15.7198 7.25894 15.7036 7.17817 15.6706C7.09741 15.6376 7.02423 15.5884 6.96311 15.5262L3.81486 12.3359C3.69344 12.2121 3.62543 12.0456 3.62543 11.8722C3.62543 11.6988 3.69344 11.5323 3.81486 11.4084C3.87457 11.3475 3.94584 11.2991 4.0245 11.2661C4.10315 11.233 4.18761 11.216 4.27292 11.216C4.35823 11.216 4.44269 11.233 4.52134 11.2661C4.6 11.2991 4.67127 11.3475 4.73098 11.4084L7.40148 14.1148L12.1265 8.49294C12.1319 8.48618 12.1378 8.47975 12.144 8.47369Z" fill="white"/>
</svg>
