<svg width="204" height="58" viewBox="0 0 204 58" fill="none" xmlns="http://www.w3.org/2000/svg">
<rect width="203.706" height="57.2665" rx="5" fill="#1354DC"/>
<path d="M13.2936 9.74513C12.8453 10.2026 12.5859 10.9149 12.5859 11.8373V44.7386C12.5859 45.661 12.8453 46.3732 13.2936 46.8307L13.4042 46.9312L32.3137 28.5018V28.0666L13.4042 9.63727L13.2936 9.74513Z" fill="#F8F9FD"/>
<path d="M40.8987 34.6488L34.6025 28.5026V28.0674L40.9064 21.9212L41.0475 22.0012L48.5129 26.1427C50.6434 27.318 50.6434 29.252 48.5129 30.4348L41.0475 34.5688L40.8987 34.6488Z" fill="#F8F9FD"/>
<path d="M39.9019 35.7128L33.4569 29.4289L14.4368 47.9754C15.1444 48.7007 16.2983 48.7881 17.6106 48.0628L39.9019 35.7128Z" fill="#F8F9FD"/>
<path d="M39.9019 20.857L17.6106 8.50695C16.2983 7.78912 15.1444 7.87652 14.4368 8.60179L33.4569 27.1409L39.9019 20.857Z" fill="#F8F9FD"/>
<path d="M70.8712 13.7692C70.8712 15.0115 70.4897 16.0064 69.7382 16.7484C68.8742 17.6281 67.7489 18.0707 66.3698 18.0707C65.0519 18.0707 63.9265 17.6206 63.0033 16.7336C62.0783 15.8335 61.6167 14.7288 61.6167 13.4066C61.6167 12.0844 62.0783 10.9797 63.0033 10.0871C63.9265 9.1926 65.0519 8.74255 66.3698 8.74255C67.026 8.74255 67.6516 8.87459 68.2486 9.12007C68.8437 9.3674 69.3281 9.70214 69.6791 10.115L68.8818 10.8998C68.2696 10.195 67.436 9.8472 66.3698 9.8472C65.4085 9.8472 64.575 10.1745 63.8674 10.8347C63.1674 11.4967 62.8164 12.354 62.8164 13.4066C62.8164 14.4592 63.1674 15.3239 63.8674 15.986C64.575 16.6387 65.4085 16.9735 66.3698 16.9735C67.3903 16.9735 68.2486 16.6387 68.9257 15.9785C69.372 15.5415 69.6257 14.939 69.6925 14.1691H66.3698V13.0942H70.8025C70.8559 13.3266 70.8712 13.5517 70.8712 13.7692Z" fill="#F8F9FD" stroke="#F8F9FD" stroke-width="0.183106" stroke-miterlimit="10"/>
<path d="M77.9026 10.0413H73.7388V12.868H77.4925V13.9429H73.7388V16.7696H77.9026V17.8649H72.5601V8.94592H77.9026V10.0413Z" fill="#F8F9FD" stroke="#F8F9FD" stroke-width="0.183106" stroke-miterlimit="10"/>
<path d="M82.8687 17.8649H81.6899V10.0413H79.136V8.94592H85.4245V10.0413H82.8687V17.8649Z" fill="#F8F9FD" stroke="#F8F9FD" stroke-width="0.183106" stroke-miterlimit="10"/>
<path d="M89.9722 17.8649V8.94592H91.149V17.8649H89.9722Z" fill="#F8F9FD" stroke="#F8F9FD" stroke-width="0.183106" stroke-miterlimit="10"/>
<path d="M96.3648 17.8649H95.1956V10.0413H92.6321V8.94592H98.9282V10.0413H96.3648V17.8649Z" fill="#F8F9FD" stroke="#F8F9FD" stroke-width="0.183106" stroke-miterlimit="10"/>
<path d="M110.833 16.7187C109.931 17.6206 108.814 18.0707 107.48 18.0707C106.139 18.0707 105.022 17.6206 104.119 16.7187C103.219 15.8186 102.771 14.714 102.771 13.4066C102.771 12.0993 103.219 10.9946 104.119 10.0945C105.022 9.19259 106.139 8.74255 107.48 8.74255C108.806 8.74255 109.924 9.19259 110.826 10.102C111.734 11.0095 112.182 12.1067 112.182 13.4066C112.182 14.714 111.734 15.8186 110.833 16.7187ZM104.991 15.9711C105.67 16.6387 106.496 16.9735 107.48 16.9735C108.457 16.9735 109.29 16.6387 109.962 15.9711C110.639 15.3035 110.982 14.4462 110.982 13.4066C110.982 12.3671 110.639 11.5097 109.962 10.8421C109.29 10.1745 108.457 9.83976 107.48 9.83976C106.496 9.83976 105.67 10.1745 104.991 10.8421C104.314 11.5097 103.971 12.3671 103.971 13.4066C103.971 14.4462 104.314 15.3035 104.991 15.9711Z" fill="#F8F9FD" stroke="#F8F9FD" stroke-width="0.183106" stroke-miterlimit="10"/>
<path d="M113.84 17.8649V8.94592H115.27L119.718 15.8825H119.77L119.718 14.1679V8.94592H120.895V17.8649H119.667L115.009 10.5862H114.957L115.009 12.3082V17.8649H113.84Z" fill="#F8F9FD" stroke="#F8F9FD" stroke-width="0.183106" stroke-miterlimit="10"/>
<path d="M102.484 30.8923C98.9003 30.8923 95.9725 33.5516 95.9725 37.2207C95.9725 40.8601 98.9003 43.5473 102.484 43.5473C106.076 43.5473 109.004 40.8601 109.004 37.2207C109.004 33.5516 106.076 30.8923 102.484 30.8923ZM102.484 41.0554C100.518 41.0554 98.8259 39.4728 98.8259 37.2207C98.8259 34.9389 100.518 33.3842 102.484 33.3842C104.451 33.3842 106.15 34.9389 106.15 37.2207C106.15 39.4728 104.451 41.0554 102.484 41.0554ZM88.2763 30.8923C84.6848 30.8923 81.7646 33.5516 81.7646 37.2207C81.7646 40.8601 84.6848 43.5473 88.2763 43.5473C91.866 43.5473 94.7881 40.8601 94.7881 37.2207C94.7881 33.5516 91.866 30.8923 88.2763 30.8923ZM88.2763 41.0554C86.3079 41.0554 84.6104 39.4728 84.6104 37.2207C84.6104 34.9389 86.3079 33.3842 88.2763 33.3842C90.2428 33.3842 91.9346 34.9389 91.9346 37.2207C91.9346 39.4728 90.2428 41.0554 88.2763 41.0554ZM71.3695 32.8319V35.521H77.9556C77.763 37.0236 77.248 38.1283 76.4584 38.8982C75.497 39.828 73.9998 40.8601 71.3695 40.8601C67.3164 40.8601 64.1426 37.6708 64.1426 33.719C64.1426 29.7672 67.3164 26.5778 71.3695 26.5778C73.5611 26.5778 75.1556 27.4128 76.3325 28.4951L78.2761 26.6001C76.63 25.0678 74.4404 23.8906 71.3695 23.8906C65.8115 23.8906 61.1404 28.2999 61.1404 33.719C61.1404 39.1381 65.8115 43.5473 71.3695 43.5473C74.3736 43.5473 76.63 42.5877 78.4039 40.7876C80.2216 39.0153 80.7881 36.5234 80.7881 34.5112C80.7881 33.8863 80.7347 33.3117 80.6393 32.8319H71.3695ZM140.504 34.9166C139.968 33.5014 138.314 30.8923 134.946 30.8923C131.608 30.8923 128.829 33.4568 128.829 37.2207C128.829 40.7653 131.579 43.5473 135.266 43.5473C138.247 43.5473 139.968 41.7751 140.675 40.743L138.463 39.3054C137.725 40.358 136.719 41.0554 135.266 41.0554C133.822 41.0554 132.786 40.4101 132.123 39.1381L140.803 35.6363L140.504 34.9166ZM131.653 37.0236C131.579 34.5837 133.597 33.334 135.043 33.334C136.176 33.334 137.137 33.8863 137.458 34.6767L131.653 37.0236ZM124.598 43.1624H127.452V24.5657H124.598V43.1624ZM119.925 32.3019H119.83C119.189 31.5617 117.966 30.8923 116.417 30.8923C113.167 30.8923 110.196 33.6743 110.196 37.2412C110.196 40.7876 113.167 43.5473 116.417 43.5473C117.966 43.5473 119.189 42.8723 119.83 42.1098H119.925V43.0173C119.925 45.4368 118.599 46.7367 116.461 46.7367C114.718 46.7367 113.637 45.5093 113.19 44.4772L110.709 45.487C111.424 47.1644 113.318 49.2286 116.461 49.2286C119.807 49.2286 122.63 47.3095 122.63 42.6398V31.2772H119.925V32.3019ZM116.662 41.0554C114.695 41.0554 113.049 39.4505 113.049 37.2412C113.049 35.0114 114.695 33.3842 116.662 33.3842C118.599 33.3842 120.127 35.0114 120.127 37.2412C120.127 39.4505 118.599 41.0554 116.662 41.0554ZM153.863 24.5657H147.038V43.1624H149.884V36.1161H153.863C157.023 36.1161 160.123 33.8863 160.123 30.3399C160.123 26.7954 157.016 24.5657 153.863 24.5657ZM153.937 33.5293H149.884V27.1525H153.937C156.062 27.1525 157.275 28.8727 157.275 30.3399C157.275 31.7793 156.062 33.5293 153.937 33.5293ZM171.529 30.8569C169.472 30.8569 167.334 31.7421 166.455 33.7041L168.98 34.7362C169.524 33.7041 170.523 33.3693 171.58 33.3693C173.056 33.3693 174.554 34.2341 174.577 35.7609V35.9562C174.062 35.666 172.959 35.2365 171.603 35.2365C168.883 35.2365 166.112 36.6963 166.112 39.4207C166.112 41.9127 168.34 43.5176 170.844 43.5176C172.759 43.5176 173.816 42.6752 174.479 41.6951H174.577V43.1326H177.325V35.9989C177.325 32.7017 174.8 30.8569 171.529 30.8569ZM171.185 41.0479C170.255 41.0479 168.958 40.5979 168.958 39.4728C168.958 38.0334 170.575 37.4811 171.975 37.4811C173.228 37.4811 173.816 37.7507 174.577 38.1059C174.353 39.828 172.833 41.0479 171.185 41.0479ZM187.339 31.2642L184.068 39.3259H183.97L180.589 31.2642H177.52L182.601 42.5301L179.702 48.7991H182.675L190.505 31.2642H187.339ZM161.687 43.1624H164.54V24.5657H161.687V43.1624Z" fill="#F8F9FD"/>
</svg>
