<svg width="204" height="58" viewBox="0 0 204 58" fill="none" xmlns="http://www.w3.org/2000/svg">
<rect width="203.706" height="57.2665" rx="5" fill="#F8F9FD"/>
<path d="M13.2936 9.74488C12.8453 10.2024 12.5859 10.9146 12.5859 11.837V44.7384C12.5859 45.6607 12.8453 46.373 13.2936 46.8305L13.4042 46.9309L32.3137 28.5015V28.0664L13.4042 9.63703L13.2936 9.74488Z" fill="#1354DC"/>
<path d="M40.8987 34.6487L34.6025 28.5025V28.0673L40.9064 21.9211L41.0475 22.001L48.5129 26.1425C50.6434 27.3179 50.6434 29.2519 48.5129 30.4347L41.0475 34.5687L40.8987 34.6487Z" fill="#1354DC"/>
<path d="M39.9019 35.7126L33.4569 29.4288L14.4368 47.9753C15.1444 48.7006 16.2983 48.788 17.6106 48.0627L39.9019 35.7126Z" fill="#1354DC"/>
<path d="M39.9019 20.8568L17.6106 8.50671C16.2983 7.78887 15.1444 7.87627 14.4368 8.60155L33.4569 27.1406L39.9019 20.8568Z" fill="#1354DC"/>
<path d="M70.8712 13.7691C70.8712 15.0114 70.4897 16.0063 69.7382 16.7483C68.8742 17.6279 67.7489 18.0705 66.3698 18.0705C65.0519 18.0705 63.9265 17.6205 63.0033 16.7334C62.0783 15.8334 61.6167 14.7287 61.6167 13.4065C61.6167 12.0843 62.0783 10.9796 63.0033 10.087C63.9265 9.19247 65.0519 8.74243 66.3698 8.74243C67.026 8.74243 67.6516 8.87447 68.2486 9.11995C68.8437 9.36728 69.3281 9.70202 69.6791 10.1149L68.8818 10.8997C68.2696 10.1948 67.436 9.84708 66.3698 9.84708C65.4085 9.84708 64.575 10.1744 63.8674 10.8346C63.1674 11.4966 62.8164 12.3539 62.8164 13.4065C62.8164 14.4591 63.1674 15.3238 63.8674 15.9859C64.575 16.6386 65.4085 16.9733 66.3698 16.9733C67.3903 16.9733 68.2486 16.6386 68.9257 15.9784C69.372 15.5414 69.6257 14.9389 69.6925 14.169H66.3698V13.0941H70.8025C70.8559 13.3265 70.8712 13.5515 70.8712 13.7691Z" fill="#1354DC" stroke="#1354DC" stroke-width="0.183106" stroke-miterlimit="10"/>
<path d="M77.9026 10.0411H73.7388V12.8679H77.4925V13.9427H73.7388V16.7694H77.9026V17.8648H72.5601V8.9458H77.9026V10.0411Z" fill="#1354DC" stroke="#1354DC" stroke-width="0.183106" stroke-miterlimit="10"/>
<path d="M82.8687 17.8648H81.6899V10.0411H79.136V8.9458H85.4245V10.0411H82.8687V17.8648Z" fill="#1354DC" stroke="#1354DC" stroke-width="0.183106" stroke-miterlimit="10"/>
<path d="M89.9722 17.8648V8.9458H91.149V17.8648H89.9722Z" fill="#1354DC" stroke="#1354DC" stroke-width="0.183106" stroke-miterlimit="10"/>
<path d="M96.3648 17.8648H95.1956V10.0411H92.6321V8.9458H98.9282V10.0411H96.3648V17.8648Z" fill="#1354DC" stroke="#1354DC" stroke-width="0.183106" stroke-miterlimit="10"/>
<path d="M110.833 16.7186C109.931 17.6205 108.814 18.0705 107.48 18.0705C106.139 18.0705 105.022 17.6205 104.119 16.7186C103.219 15.8185 102.771 14.7138 102.771 13.4065C102.771 12.0991 103.219 10.9945 104.119 10.0944C105.022 9.19247 106.139 8.74243 107.48 8.74243C108.806 8.74243 109.924 9.19247 110.826 10.1019C111.734 11.0094 112.182 12.1066 112.182 13.4065C112.182 14.7138 111.734 15.8185 110.833 16.7186ZM104.991 15.971C105.67 16.6386 106.496 16.9733 107.48 16.9733C108.457 16.9733 109.29 16.6386 109.962 15.971C110.639 15.3034 110.982 14.446 110.982 13.4065C110.982 12.3669 110.639 11.5096 109.962 10.842C109.29 10.1744 108.457 9.83964 107.48 9.83964C106.496 9.83964 105.67 10.1744 104.991 10.842C104.314 11.5096 103.971 12.3669 103.971 13.4065C103.971 14.446 104.314 15.3034 104.991 15.971Z" fill="#1354DC" stroke="#1354DC" stroke-width="0.183106" stroke-miterlimit="10"/>
<path d="M113.84 17.8648V8.9458H115.27L119.718 15.8824H119.77L119.718 14.1678V8.9458H120.895V17.8648H119.667L115.009 10.586H114.957L115.009 12.3081V17.8648H113.84Z" fill="#1354DC" stroke="#1354DC" stroke-width="0.183106" stroke-miterlimit="10"/>
<path d="M102.484 30.8924C98.9003 30.8924 95.9725 33.5517 95.9725 37.2209C95.9725 40.8602 98.9003 43.5475 102.484 43.5475C106.076 43.5475 109.004 40.8602 109.004 37.2209C109.004 33.5517 106.076 30.8924 102.484 30.8924ZM102.484 41.0555C100.518 41.0555 98.8259 39.4729 98.8259 37.2209C98.8259 34.939 100.518 33.3843 102.484 33.3843C104.451 33.3843 106.15 34.939 106.15 37.2209C106.15 39.4729 104.451 41.0555 102.484 41.0555ZM88.2763 30.8924C84.6848 30.8924 81.7646 33.5517 81.7646 37.2209C81.7646 40.8602 84.6848 43.5475 88.2763 43.5475C91.866 43.5475 94.7881 40.8602 94.7881 37.2209C94.7881 33.5517 91.866 30.8924 88.2763 30.8924ZM88.2763 41.0555C86.3079 41.0555 84.6104 39.4729 84.6104 37.2209C84.6104 34.939 86.3079 33.3843 88.2763 33.3843C90.2428 33.3843 91.9346 34.939 91.9346 37.2209C91.9346 39.4729 90.2428 41.0555 88.2763 41.0555ZM71.3695 32.832V35.5211H77.9556C77.763 37.0237 77.248 38.1284 76.4584 38.8983C75.497 39.8281 73.9998 40.8602 71.3695 40.8602C67.3164 40.8602 64.1426 37.6709 64.1426 33.7191C64.1426 29.7673 67.3164 26.5779 71.3695 26.5779C73.5611 26.5779 75.1556 27.4129 76.3325 28.4953L78.2761 26.6003C76.63 25.0679 74.4404 23.8907 71.3695 23.8907C65.8115 23.8907 61.1404 28.3 61.1404 33.7191C61.1404 39.1382 65.8115 43.5475 71.3695 43.5475C74.3736 43.5475 76.63 42.5879 78.4039 40.7877C80.2216 39.0154 80.7881 36.5235 80.7881 34.5113C80.7881 33.8865 80.7347 33.3118 80.6393 32.832H71.3695ZM140.504 34.9167C139.968 33.5015 138.314 30.8924 134.946 30.8924C131.608 30.8924 128.829 33.4569 128.829 37.2209C128.829 40.7654 131.579 43.5475 135.266 43.5475C138.247 43.5475 139.968 41.7752 140.675 40.7431L138.463 39.3055C137.725 40.3581 136.719 41.0555 135.266 41.0555C133.822 41.0555 132.786 40.4102 132.123 39.1382L140.803 35.6364L140.504 34.9167ZM131.653 37.0237C131.579 34.5838 133.597 33.3341 135.043 33.3341C136.176 33.3341 137.137 33.8865 137.458 34.6768L131.653 37.0237ZM124.598 43.1625H127.452V24.5658H124.598V43.1625ZM119.925 32.302H119.83C119.189 31.5619 117.966 30.8924 116.417 30.8924C113.167 30.8924 110.196 33.6745 110.196 37.2413C110.196 40.7877 113.167 43.5475 116.417 43.5475C117.966 43.5475 119.189 42.8724 119.83 42.1099H119.925V43.0175C119.925 45.4369 118.599 46.7368 116.461 46.7368C114.718 46.7368 113.637 45.5094 113.19 44.4773L110.709 45.4871C111.424 47.1645 113.318 49.2288 116.461 49.2288C119.807 49.2288 122.63 47.3096 122.63 42.6399V31.2773H119.925V32.302ZM116.662 41.0555C114.695 41.0555 113.049 39.4506 113.049 37.2413C113.049 35.0116 114.695 33.3843 116.662 33.3843C118.599 33.3843 120.127 35.0116 120.127 37.2413C120.127 39.4506 118.599 41.0555 116.662 41.0555ZM153.863 24.5658H147.038V43.1625H149.884V36.1162H153.863C157.023 36.1162 160.123 33.8865 160.123 30.3401C160.123 26.7955 157.016 24.5658 153.863 24.5658ZM153.937 33.5294H149.884V27.1526H153.937C156.062 27.1526 157.275 28.8728 157.275 30.3401C157.275 31.7794 156.062 33.5294 153.937 33.5294ZM171.529 30.8571C169.472 30.8571 167.334 31.7423 166.455 33.7042L168.98 34.7363C169.524 33.7042 170.523 33.3695 171.58 33.3695C173.056 33.3695 174.554 34.2342 174.577 35.761V35.9563C174.062 35.6662 172.959 35.2366 171.603 35.2366C168.883 35.2366 166.112 36.6964 166.112 39.4208C166.112 41.9128 168.34 43.5177 170.844 43.5177C172.759 43.5177 173.816 42.6753 174.479 41.6952H174.577V43.1328H177.325V35.9991C177.325 32.7019 174.8 30.8571 171.529 30.8571ZM171.185 41.0481C170.255 41.0481 168.958 40.598 168.958 39.4729C168.958 38.0335 170.575 37.4812 171.975 37.4812C173.228 37.4812 173.816 37.7509 174.577 38.1061C174.353 39.8281 172.833 41.0481 171.185 41.0481ZM187.339 31.2643L184.068 39.326H183.97L180.589 31.2643H177.52L182.601 42.5302L179.702 48.7992H182.675L190.505 31.2643H187.339ZM161.687 43.1625H164.54V24.5658H161.687V43.1625Z" fill="#1354DC"/>
</svg>
