<svg width="21" height="22" viewBox="0 0 21 22" fill="none" xmlns="http://www.w3.org/2000/svg">
<path d="M14.2532 3.55624C15.2426 3.5592 16.1906 3.95352 16.8901 4.6531C17.5897 5.35267 17.984 6.30064 17.987 7.28998V14.7567C17.984 15.746 17.5897 16.694 16.8901 17.3936C16.1906 18.0931 15.2426 18.4875 14.2532 18.4904H6.78657C5.79723 18.4875 4.84925 18.0931 4.14968 17.3936C3.4501 16.694 3.05578 15.746 3.05283 14.7567V7.28998C3.05578 6.30064 3.4501 5.35267 4.14968 4.6531C4.84925 3.95352 5.79723 3.5592 6.78657 3.55624H14.2532ZM14.2532 2.06299H6.78657C3.91166 2.06299 1.55957 4.41508 1.55957 7.28998V14.7567C1.55957 17.6316 3.91166 19.9837 6.78657 19.9837H14.2532C17.1282 19.9837 19.4802 17.6316 19.4802 14.7567V7.28998C19.4802 4.41508 17.1282 2.06299 14.2532 2.06299Z" fill="black"/>
<path d="M15.373 7.28989C15.1514 7.28989 14.9349 7.2242 14.7507 7.10113C14.5665 6.97806 14.423 6.80313 14.3382 6.59847C14.2534 6.39381 14.2312 6.1686 14.2745 5.95134C14.3177 5.73407 14.4243 5.5345 14.581 5.37786C14.7376 5.22122 14.9372 5.11454 15.1545 5.07133C15.3717 5.02811 15.5969 5.05029 15.8016 5.13506C16.0063 5.21984 16.1812 5.3634 16.3043 5.54759C16.4273 5.73178 16.493 5.94832 16.493 6.16985C16.4933 6.31702 16.4646 6.46281 16.4084 6.59884C16.3522 6.73488 16.2697 6.85847 16.1657 6.96254C16.0616 7.06661 15.938 7.1491 15.802 7.20528C15.6659 7.26145 15.5201 7.29021 15.373 7.28989Z" fill="black"/>
<path d="M10.5192 8.03671C11.11 8.03671 11.6875 8.21189 12.1787 8.5401C12.6699 8.8683 13.0527 9.3348 13.2788 9.88058C13.5049 10.4264 13.564 11.0269 13.4488 11.6063C13.3335 12.1857 13.049 12.718 12.6313 13.1357C12.2136 13.5534 11.6814 13.8379 11.102 13.9531C10.5225 14.0684 9.92198 14.0092 9.37619 13.7832C8.8304 13.5571 8.36391 13.1743 8.03571 12.6831C7.7075 12.1919 7.53232 11.6144 7.53232 11.0236C7.53317 10.2317 7.84813 9.47247 8.4081 8.9125C8.96807 8.35252 9.72731 8.03756 10.5192 8.03671ZM10.5192 6.54346C9.63314 6.54346 8.76694 6.80621 8.03018 7.2985C7.29342 7.79079 6.71919 8.4905 6.3801 9.30914C6.041 10.1278 5.95228 11.0286 6.12515 11.8977C6.29802 12.7667 6.72471 13.565 7.35128 14.1916C7.97784 14.8181 8.77613 15.2448 9.6452 15.4177C10.5143 15.5906 11.4151 15.5019 12.2337 15.1628C13.0524 14.8237 13.7521 14.2494 14.2444 13.5127C14.7366 12.7759 14.9994 11.9097 14.9994 11.0236C14.9994 9.83541 14.5274 8.69586 13.6872 7.85567C12.847 7.01547 11.7074 6.54346 10.5192 6.54346Z" fill="black"/>
</svg>
