<svg width="22" height="22" viewBox="0 0 22 22" fill="none" xmlns="http://www.w3.org/2000/svg">
<path d="M18.3546 2.06299H3.39844C2.58121 2.06299 1.86719 2.65101 1.86719 3.45864V18.448C1.86719 19.26 2.58121 19.9837 3.39844 19.9837H18.3502C19.1718 19.9837 19.7879 19.2552 19.7879 18.448V3.45864C19.7927 2.65101 19.1718 2.06299 18.3546 2.06299ZM7.4222 17.0007H4.8549V9.01845H7.4222V17.0007ZM6.22735 7.8048H6.20895C5.38732 7.8048 4.8553 7.19318 4.8553 6.42755C4.8553 5.64792 5.40132 5.0507 6.24135 5.0507C7.08138 5.0507 7.5954 5.64352 7.6138 6.42755C7.6134 7.19318 7.08138 7.8048 6.22735 7.8048ZM16.8049 17.0007H14.2377V12.6362C14.2377 11.5905 13.864 10.8761 12.9352 10.8761C12.2256 10.8761 11.8056 11.3561 11.6188 11.8238C11.5488 11.9918 11.53 12.2206 11.53 12.4542V17.0007H8.96265V9.01845H11.53V10.1293C11.9036 9.59727 12.4872 8.83164 13.8452 8.83164C15.5305 8.83164 16.8053 9.94248 16.8053 12.3374L16.8049 17.0007Z" fill="black"/>
</svg>
