<svg width="49" height="49" viewBox="0 0 49 49" fill="none" xmlns="http://www.w3.org/2000/svg">
<path d="M24.5 42.6699L34.6056 32.564C40.1869 26.9829 40.1869 17.9339 34.6056 12.3526C29.0245 6.77139 19.9755 6.77139 14.3943 12.3526C8.81302 17.9339 8.81302 26.9829 14.3943 32.564L24.5 42.6699ZM24.5 48.4445L11.5069 35.4515C4.33103 28.2755 4.33103 16.6412 11.5069 9.46529C18.6828 2.2894 30.3171 2.2894 37.4932 9.46529C44.669 16.6412 44.669 28.2755 37.4932 35.4515L24.5 48.4445ZM24.5 26.5417C26.7552 26.5417 28.5833 24.7136 28.5833 22.4584C28.5833 20.2032 26.7552 18.375 24.5 18.375C22.2448 18.375 20.4167 20.2032 20.4167 22.4584C20.4167 24.7136 22.2448 26.5417 24.5 26.5417ZM24.5 30.625C19.9897 30.625 16.3333 26.9686 16.3333 22.4584C16.3333 17.948 19.9897 14.2917 24.5 14.2917C29.0102 14.2917 32.6667 17.948 32.6667 22.4584C32.6667 26.9686 29.0102 30.625 24.5 30.625Z" fill="black"/>
</svg>
