<svg width="170" height="64" viewBox="0 0 170 64" fill="none" xmlns="http://www.w3.org/2000/svg">
<g clip-path="url(#clip0_5233_458)">
<path d="M72.7675 22.8936V27.96H70.7499C66.8044 27.96 64.3385 30.0672 64.3385 34.3714V45.1318H58.8686V23.0281H64.0246L64.3385 26.2562C65.28 24.0593 67.3872 22.5797 70.3464 22.5797C71.1086 22.5797 71.8708 22.6694 72.7675 22.8936ZM80.1674 45.7147C75.4597 45.7147 72.5902 42.9797 72.5902 38.8101C72.5902 34.7301 75.5493 32.1745 80.7951 31.771L87.4307 31.2778V30.7846C87.4307 27.7806 85.6373 26.5701 82.8575 26.5701C79.6293 26.5701 77.8359 27.9151 77.8359 30.2466H73.1731C73.1731 25.4492 77.1186 22.3107 83.1265 22.3107C89.0896 22.3107 92.766 25.5389 92.766 31.6813V45.1318H87.9687L87.5652 41.8589C86.6236 44.1455 83.6197 45.7147 80.1674 45.7147ZM81.9608 41.5899C85.3234 41.5899 87.4755 39.5723 87.4755 36.1648V34.9991L82.8575 35.3578C79.45 35.6716 78.1498 36.7925 78.1498 38.5859C78.1498 40.6035 79.4948 41.5899 81.9608 41.5899ZM96.122 55.3991V22.9833H101.188L101.547 26.3459C102.892 23.7903 105.806 22.3107 109.169 22.3107C115.401 22.3107 119.526 26.8391 119.526 33.7885C119.526 40.6932 115.76 45.7147 109.169 45.7147C105.851 45.7147 102.982 44.4145 101.592 42.1727V55.3991H96.122ZM101.637 34.0575C101.637 38.0479 104.103 40.7828 107.869 40.7828C111.725 40.7828 114.011 38.003 114.011 34.0575C114.011 30.1121 111.725 27.2874 107.869 27.2874C104.103 27.2874 101.637 30.0672 101.637 34.0575ZM119.104 55.3991V50.8259H122.377C124.529 50.8259 125.874 50.3327 126.816 47.7323L127.443 46.0734L118.521 22.9833H124.305L129.999 39.1239L136.007 22.9833H141.656L130.806 50.0637C129.147 54.1885 126.816 55.8923 123.184 55.8923C121.66 55.8923 120.314 55.7129 119.104 55.3991ZM150.84 45.7147C144.428 45.7147 140.438 41.007 140.438 34.1472C140.438 27.2426 144.473 22.3107 151.154 22.3107C154.247 22.3107 156.982 23.611 158.372 25.8079V11.7745H163.797V45.1318H158.776L158.417 41.6795C157.072 44.2351 154.202 45.7147 150.84 45.7147ZM152.05 40.6932C155.861 40.6932 158.327 37.9582 158.327 33.9679C158.327 29.9775 155.861 27.1978 152.05 27.1978C148.239 27.1978 145.908 30.0224 145.908 33.9679C145.908 37.9134 148.239 40.6932 152.05 40.6932Z" fill="#F8F9FD"/>
<path d="M40.8457 16.2092C40.4578 16.2092 40.0698 16.0741 39.7581 15.7951C35.992 12.4365 31.1601 10.5861 26.1538 10.5861C21.1475 10.5861 16.3156 12.4365 12.5494 15.7951C11.876 16.3923 10.8407 16.34 10.2413 15.6622C9.6398 14.9887 9.69865 13.9534 10.3743 13.3541C14.7398 9.46151 20.3433 7.31689 26.1538 7.31689C31.9643 7.31689 37.5678 9.46151 41.9333 13.3541C42.6089 13.9556 42.6678 14.9887 42.0662 15.6622C41.7437 16.0239 41.2947 16.2092 40.8457 16.2092Z" fill="#F8F9FD"/>
<path d="M43.0471 24.515C42.5262 24.515 42.014 24.2666 41.698 23.8045C38.1541 18.6435 32.3436 15.5617 26.1539 15.5617C19.9641 15.5617 14.1536 18.6435 10.6098 23.8067C10.0998 24.5477 9.08631 24.7461 8.33657 24.2295C7.59337 23.7195 7.40375 22.7017 7.91593 21.9585C12.0679 15.9039 18.8853 12.2925 26.1539 12.2925C33.4225 12.2925 40.2399 15.9061 44.3918 21.9563C44.9018 22.6995 44.7122 23.7174 43.9712 24.2274C43.6879 24.4235 43.3631 24.515 43.0471 24.515Z" fill="#F8F9FD"/>
<path d="M22.0498 48.7273C21.6357 48.7273 21.2194 48.5704 20.9012 48.2565C20.6135 47.9732 13.8506 41.2168 13.8506 34.6565C13.8506 27.8108 19.369 22.2422 26.156 22.2422C32.9429 22.2422 38.4614 27.8108 38.4614 34.6565C38.4614 35.5589 37.729 36.2912 36.8267 36.2912C35.9244 36.2912 35.1921 35.5589 35.1921 34.6565C35.1921 29.6154 31.1405 25.5114 26.156 25.5114C21.1715 25.5114 17.1198 29.6132 17.1198 34.6565C17.1198 39.8481 23.1417 45.8722 23.2006 45.931C23.8414 46.5674 23.8479 47.6005 23.2137 48.2435C22.8933 48.566 22.4726 48.7273 22.0498 48.7273Z" fill="#F8F9FD"/>
<path d="M30.2579 48.7271C27.0366 48.7271 19.574 42.7574 18.8526 36.1078C18.5954 33.7104 19.3343 31.3413 20.8795 29.6108C22.2482 28.0764 24.1073 27.2264 26.1168 27.2155C28.1481 27.2569 29.9396 27.9674 31.3389 29.3601C32.7555 30.7681 33.5358 32.649 33.5358 34.6541V35.4823C33.5358 37.324 35.0135 38.8235 36.8268 38.8235C38.6402 38.8235 40.1179 37.324 40.1179 35.4823V35.1924C40.1179 27.4683 34.3945 21.041 27.0889 20.5659C23.1898 20.3044 19.5064 21.636 16.6687 24.2928C13.8245 26.9583 12.1921 30.7354 12.1921 34.6541C12.1921 37.9299 13.3276 41.1206 15.385 43.6401C15.9561 44.3398 15.8514 45.3685 15.154 45.9395C14.4544 46.5127 13.4257 46.4059 12.8525 45.7085C10.3199 42.6071 8.92285 38.6796 8.92285 34.6541C8.92285 29.8331 10.9323 25.1864 14.4326 21.9063C17.9372 18.624 22.5185 16.9894 27.2959 17.3032C36.3168 17.8939 43.3805 25.7509 43.3805 35.1924V35.4823C43.3805 39.1264 40.4361 42.0927 36.8203 42.0927C33.2045 42.0927 30.26 39.1286 30.26 35.4823V34.6541C30.26 33.5251 29.822 32.4681 29.0286 31.6769C28.2571 30.9076 27.2349 30.4848 26.1517 30.4848C26.143 30.4848 26.1364 30.4848 26.1299 30.4848C24.7568 30.4913 23.8414 31.1974 23.314 31.7881C22.3964 32.8168 21.9431 34.2989 22.1 35.7569C22.6449 40.7589 28.6668 45.4578 30.2579 45.4578C31.1602 45.4578 31.8925 46.1901 31.8925 47.0924C31.8925 47.9948 31.1602 48.7271 30.2579 48.7271Z" fill="#F8F9FD"/>
<path d="M35.0807 46.2404C30.251 46.2404 24.4165 40.7023 24.4165 33.826C24.4165 32.9237 25.1488 32.1914 26.0511 32.1914C26.9534 32.1914 27.6857 32.9237 27.6857 33.826C27.6857 38.8737 32.1602 42.9711 35.0807 42.9711C35.983 42.9711 36.7154 43.7035 36.7154 44.6058C36.7154 45.5081 35.983 46.2404 35.0807 46.2404Z" fill="#F8F9FD"/>
</g>
<path d="M61.9326 59.5124C58.8696 59.5124 56.8851 57.3841 56.8851 54.091C56.8851 50.8266 58.9415 48.6552 62.0189 48.6552C64.5067 48.6552 66.3618 50.1076 66.7213 52.3653H64.7799C64.4204 51.143 63.3706 50.424 61.9757 50.424C60.0344 50.424 58.812 51.8333 58.812 54.0766C58.812 56.3056 60.0488 57.7436 61.9757 57.7436C63.3994 57.7436 64.4923 56.9958 64.8374 55.831H66.75C66.3474 58.0456 64.4204 59.5124 61.9326 59.5124ZM67.7249 55.7735C67.7249 53.5589 69.3211 52.0346 71.5213 52.0346C73.7215 52.0346 75.3177 53.5589 75.3177 55.7735C75.3177 57.9881 73.7215 59.5124 71.5213 59.5124C69.3211 59.5124 67.7249 57.9881 67.7249 55.7735ZM69.4793 55.7735C69.4793 57.0677 70.3134 57.9449 71.5213 57.9449C72.7293 57.9449 73.5633 57.0677 73.5633 55.7735C73.5633 54.4793 72.7293 53.602 71.5213 53.602C70.3134 53.602 69.4793 54.4793 69.4793 55.7735ZM78.3706 59.3398L75.552 52.2359H77.4214L78.6582 55.5003C78.9602 56.3487 79.2046 57.0821 79.2909 57.4704C79.3916 57.0246 79.6504 56.2768 79.9524 55.5003L81.2466 52.2359H83.0586L80.0962 59.3398H78.3706ZM86.8941 59.5268C84.7802 59.5268 83.299 57.9881 83.299 55.7879C83.299 53.5589 84.7514 52.0202 86.8366 52.0202C88.9649 52.0202 90.3167 53.4439 90.3167 55.6585V56.1905L84.9671 56.2049C85.0966 57.456 85.7581 58.0887 86.9229 58.0887C87.8864 58.0887 88.5191 57.7149 88.7204 57.039H90.3454C90.0434 58.5921 88.7492 59.5268 86.8941 59.5268ZM86.851 53.4582C85.8156 53.4582 85.1828 54.0191 85.0103 55.0832H88.5766C88.5766 54.1054 87.9007 53.4582 86.851 53.4582ZM96.1787 52.2071V53.8321H95.5316C94.2661 53.8321 93.4752 54.508 93.4752 55.8885V59.3398H91.7208V52.2503H93.3745L93.4752 53.2857C93.7772 52.581 94.4531 52.1065 95.4022 52.1065C95.6466 52.1065 95.8911 52.1352 96.1787 52.2071Z" fill="#F8F9FD"/>
<defs>
<clipPath id="clip0_5233_458">
<rect width="170" height="56.044" fill="white"/>
</clipPath>
</defs>
</svg>
