<svg width="109" height="41" viewBox="0 0 109 41" fill="none" xmlns="http://www.w3.org/2000/svg">
<g clip-path="url(#clip0_5113_31313)">
<path d="M46.6568 15.5436V18.792H45.3632C42.8334 18.792 41.2523 20.1432 41.2523 22.9029V29.8022H37.7452V15.6298H41.0511L41.2523 17.6997C41.856 16.291 43.2071 15.3424 45.1045 15.3424C45.5932 15.3424 46.0819 15.3999 46.6568 15.5436ZM51.4015 30.176C48.383 30.176 46.5432 28.4224 46.5432 25.7489C46.5432 23.1329 48.4405 21.4943 51.8039 21.2356L56.0585 20.9193V20.6031C56.0585 18.6771 54.9086 17.9009 53.1263 17.9009C51.0565 17.9009 49.9066 18.7633 49.9066 20.2582H46.9169C46.9169 17.1822 49.4466 15.1699 53.2988 15.1699C57.1222 15.1699 59.4794 17.2397 59.4794 21.1781V29.8022H56.4035L56.1447 27.7037C55.5411 29.1698 53.615 30.176 51.4015 30.176ZM52.5513 27.5312C54.7074 27.5312 56.0873 26.2376 56.0873 24.0528V23.3054L53.1263 23.5353C50.9415 23.7366 50.1078 24.4553 50.1078 25.6051C50.1078 26.8988 50.9702 27.5312 52.5513 27.5312ZM61.6312 36.3854V15.6011H64.8796L65.1096 17.7571C65.972 16.1186 67.8406 15.1699 69.9967 15.1699C73.9925 15.1699 76.6373 18.0734 76.6373 22.5292C76.6373 26.9563 74.2225 30.176 69.9967 30.176C67.8694 30.176 66.0295 29.3423 65.1384 27.9049V36.3854H61.6312ZM65.1671 22.7017C65.1671 25.2602 66.7482 27.0138 69.163 27.0138C71.6353 27.0138 73.1014 25.2314 73.1014 22.7017C73.1014 20.1719 71.6353 18.3608 69.163 18.3608C66.7482 18.3608 65.1671 20.1432 65.1671 22.7017ZM76.3666 36.3854V33.4531H78.4652C79.8451 33.4531 80.7075 33.1369 81.3112 31.4696L81.7136 30.4059L75.9929 15.6011H79.7013L83.3522 25.9501L87.2044 15.6011H90.8265L83.8697 32.9644C82.806 35.6092 81.3112 36.7016 78.9826 36.7016C78.0052 36.7016 77.1428 36.5866 76.3666 36.3854ZM96.715 30.176C92.6041 30.176 90.0456 27.1575 90.0456 22.7592C90.0456 18.3321 92.6329 15.1699 96.9162 15.1699C98.8998 15.1699 100.653 16.0036 101.545 17.4122V8.41429H105.023V29.8022H101.803L101.573 27.5887C100.711 29.2273 98.871 30.176 96.715 30.176ZM97.4912 26.9563C99.9347 26.9563 101.516 25.2027 101.516 22.6442C101.516 20.0857 99.9347 18.3033 97.4912 18.3033C95.0476 18.3033 93.5528 20.1144 93.5528 22.6442C93.5528 25.1739 95.0476 26.9563 97.4912 26.9563Z" fill="#F8F9FD"/>
<path d="M26.1932 10.3917C25.9444 10.3917 25.6957 10.3051 25.4959 10.1262C23.0811 7.97276 19.983 6.78634 16.7731 6.78634C13.5632 6.78634 10.465 7.97276 8.05028 10.1262C7.61847 10.5091 6.95469 10.4756 6.57039 10.041C6.1847 9.60916 6.22243 8.94538 6.65564 8.56108C9.4547 6.06526 13.0475 4.69019 16.7731 4.69019C20.4986 4.69019 24.0914 6.06526 26.8905 8.56108C27.3237 8.94678 27.3614 9.60916 26.9758 10.041C26.7689 10.2729 26.4811 10.3917 26.1932 10.3917Z" fill="#F8F9FD"/>
<path d="M27.5984 15.7196C27.2644 15.7196 26.936 15.5603 26.7333 15.2641C24.4611 11.9549 20.7355 9.97897 16.7668 9.97897C12.7981 9.97897 9.07255 11.9549 6.80032 15.2655C6.47332 15.7406 5.82351 15.8678 5.34279 15.5366C4.86627 15.2096 4.74469 14.557 5.07309 14.0804C7.7352 10.1984 12.1064 7.88281 16.7668 7.88281C21.4273 7.88281 25.7985 10.1998 28.4606 14.079C28.7876 14.5556 28.666 15.2082 28.1909 15.5352C28.0092 15.6609 27.801 15.7196 27.5984 15.7196Z" fill="#F8F9FD"/>
<path d="M14.1395 31.2431C13.874 31.2431 13.6071 31.1425 13.403 30.9413C13.2186 30.7596 8.88232 26.4276 8.88232 22.2213C8.88232 17.8319 12.4206 14.2615 16.7722 14.2615C21.1239 14.2615 24.6622 17.8319 24.6622 22.2213C24.6622 22.7998 24.1926 23.2693 23.6141 23.2693C23.0356 23.2693 22.566 22.7998 22.566 22.2213C22.566 18.989 19.9682 16.3576 16.7722 16.3576C13.5763 16.3576 10.9785 18.9876 10.9785 22.2213C10.9785 25.55 14.8396 29.4125 14.8773 29.4502C15.2882 29.8583 15.2924 30.5206 14.8857 30.9329C14.6803 31.1397 14.4106 31.2431 14.1395 31.2431Z" fill="#F8F9FD"/>
<path d="M19.4014 31.2434C17.336 31.2434 12.5512 27.4159 12.0886 23.1523C11.9237 21.6151 12.3975 20.0961 13.3883 18.9865C14.2658 18.0027 15.4579 17.4577 16.7463 17.4508C18.0487 17.4773 19.1974 17.9329 20.0946 18.8258C21.0029 19.7286 21.5032 20.9346 21.5032 22.2202V22.7512C21.5032 23.9321 22.4506 24.8935 23.6133 24.8935C24.776 24.8935 25.7234 23.9321 25.7234 22.7512V22.5654C25.7234 17.6129 22.0538 13.4918 17.3696 13.1872C14.8695 13.0195 12.5079 13.8733 10.6884 15.5768C8.86476 17.2859 7.81808 19.7076 7.81808 22.2202C7.81808 24.3205 8.54614 26.3664 9.86532 27.9818C10.2314 28.4304 10.1644 29.09 9.71719 29.4561C9.26862 29.8237 8.60903 29.7552 8.2415 29.308C6.61768 27.3194 5.72192 24.8013 5.72192 22.2202C5.72192 19.1291 7.01036 16.1497 9.25464 14.0466C11.5017 11.9421 14.4391 10.894 17.5023 11.0952C23.2863 11.4739 27.8154 16.5117 27.8154 22.5654V22.7512C27.8154 25.0877 25.9274 26.9896 23.6091 26.9896C21.2908 26.9896 19.4028 25.0891 19.4028 22.7512V22.2202C19.4028 21.4963 19.1219 20.8186 18.6133 20.3113C18.1186 19.818 17.4632 19.5469 16.7687 19.5469C16.7631 19.5469 16.7589 19.5469 16.7547 19.5469C15.8743 19.5511 15.2874 20.0039 14.9492 20.3826C14.3609 21.0422 14.0702 21.9924 14.1708 22.9273C14.5202 26.1344 18.3813 29.1473 19.4014 29.1473C19.98 29.1473 20.4495 29.6168 20.4495 30.1954C20.4495 30.7739 19.98 31.2434 19.4014 31.2434Z" fill="#F8F9FD"/>
<path d="M22.4927 29.6497C19.396 29.6497 15.655 26.0988 15.655 21.6899C15.655 21.1114 16.1246 20.6418 16.7031 20.6418C17.2816 20.6418 17.7512 21.1114 17.7512 21.6899C17.7512 24.9264 20.6201 27.5536 22.4927 27.5536C23.0712 27.5536 23.5408 28.0231 23.5408 28.6016C23.5408 29.1802 23.0712 29.6497 22.4927 29.6497Z" fill="#F8F9FD"/>
</g>
<path d="M39.7107 38.5401C37.7468 38.5401 36.4743 37.1755 36.4743 35.064C36.4743 32.971 37.7929 31.5787 39.766 31.5787C41.3612 31.5787 42.5506 32.5099 42.7811 33.9576H41.5363C41.3058 33.1738 40.6327 32.7128 39.7384 32.7128C38.4936 32.7128 37.7099 33.6164 37.7099 35.0548C37.7099 36.4839 38.5028 37.406 39.7384 37.406C40.6512 37.406 41.3519 36.9265 41.5732 36.1797H42.7995C42.5414 37.5996 41.3058 38.5401 39.7107 38.5401ZM43.4246 36.1428C43.4246 34.7228 44.448 33.7455 45.8588 33.7455C47.2695 33.7455 48.2929 34.7228 48.2929 36.1428C48.2929 37.5627 47.2695 38.5401 45.8588 38.5401C44.448 38.5401 43.4246 37.5627 43.4246 36.1428ZM44.5495 36.1428C44.5495 36.9726 45.0842 37.5351 45.8588 37.5351C46.6333 37.5351 47.1681 36.9726 47.1681 36.1428C47.1681 35.3129 46.6333 34.7505 45.8588 34.7505C45.0842 34.7505 44.5495 35.3129 44.5495 36.1428ZM50.2503 38.4294L48.4431 33.8746H49.6418L50.4347 35.9676C50.6284 36.5116 50.7851 36.9818 50.8404 37.2308C50.905 36.945 51.071 36.4655 51.2646 35.9676L52.0944 33.8746H53.2562L51.3568 38.4294H50.2503ZM55.7154 38.5493C54.36 38.5493 53.4103 37.5627 53.4103 36.152C53.4103 34.7228 54.3416 33.7363 55.6786 33.7363C57.0432 33.7363 57.9099 34.6491 57.9099 36.069V36.4102L54.4799 36.4194C54.5629 37.2216 54.987 37.6273 55.7339 37.6273C56.3516 37.6273 56.7573 37.3875 56.8864 36.9542H57.9283C57.7347 37.95 56.9049 38.5493 55.7154 38.5493ZM55.6878 34.6583C55.0239 34.6583 54.6182 35.0179 54.5076 35.7002H56.7942C56.7942 35.0732 56.3609 34.6583 55.6878 34.6583ZM61.6685 33.8561V34.898H61.2536C60.4422 34.898 59.9351 35.3314 59.9351 36.2165V38.4294H58.8102V33.8838H59.8705L59.9351 34.5477C60.1287 34.0959 60.5621 33.7916 61.1706 33.7916C61.3273 33.7916 61.4841 33.81 61.6685 33.8561Z" fill="#F8F9FD"/>
<defs>
<clipPath id="clip0_5113_31313">
<rect width="109" height="35.9341" fill="white"/>
</clipPath>
</defs>
</svg>
