<svg width="21" height="22" viewBox="0 0 21 22" fill="none" xmlns="http://www.w3.org/2000/svg">
<g clip-path="url(#clip0_5118_30022)">
<path d="M20.0806 5.16334C19.3604 5.47629 18.5983 5.68247 17.8185 5.77536C18.638 5.29549 19.2543 4.53314 19.5518 3.63128C18.777 4.08433 17.9307 4.40222 17.0493 4.57131C16.6781 4.18231 16.2317 3.87285 15.7372 3.66174C15.2427 3.45063 14.7105 3.34227 14.1728 3.34327C11.9959 3.34327 10.2342 5.07933 10.2342 7.21941C10.2327 7.51709 10.2668 7.81388 10.3358 8.10345C8.77485 8.03027 7.24633 7.63206 5.84806 6.93431C4.44979 6.23655 3.21256 5.2546 2.21553 4.05129C1.86575 4.64097 1.68077 5.31376 1.67991 5.99937C1.67991 7.34342 2.38114 8.53146 3.43998 9.22749C2.81265 9.2126 2.19817 9.04656 1.64871 8.74347V8.79147C1.64871 10.6715 3.00876 12.2356 4.80883 12.5916C4.47033 12.6819 4.12151 12.7276 3.77119 12.7276C3.52261 12.7281 3.2746 12.7039 3.03076 12.6556C3.53118 14.1957 4.98764 15.3157 6.7129 15.3477C5.311 16.4281 3.58983 17.0121 1.81992 17.0078C1.50575 17.0073 1.19188 16.9886 0.879883 16.9518C2.68042 18.1015 4.77341 18.7097 6.90971 18.7038C14.1644 18.7038 18.1277 12.7956 18.1277 7.67143C18.1277 7.50342 18.1233 7.33542 18.1153 7.17141C18.8846 6.62422 19.5501 5.94421 20.0806 5.16334Z" fill="black"/>
</g>
<defs>
<clipPath id="clip0_5118_30022">
<rect width="20.4808" height="20.4808" fill="white" transform="translate(0.240234 0.783203)"/>
</clipPath>
</defs>
</svg>
